<svg width="376" height="71" viewBox="0 0 376 71" fill="none" xmlns="http://www.w3.org/2000/svg">
<path d="M355.843 56.8158C352.884 56.8158 350.079 56.4935 347.43 55.8491C344.805 55.2047 342.633 54.4528 340.914 53.5936V42.9963H341.952C342.549 43.4497 343.229 43.951 343.993 44.4999C344.757 45.0489 345.819 45.6217 347.179 46.2184C348.349 46.7674 349.662 47.2447 351.118 47.6505C352.597 48.0324 354.197 48.2233 355.915 48.2233C357.681 48.2233 359.233 47.9488 360.569 47.3999C361.93 46.8509 362.61 45.9797 362.61 44.7863C362.61 43.8555 362.3 43.1514 361.679 42.674C361.059 42.1967 359.853 41.7432 358.063 41.3136C357.108 41.0749 355.903 40.8243 354.447 40.5617C352.991 40.2753 351.702 39.9531 350.581 39.5951C347.43 38.6165 345.055 37.1725 343.456 35.2631C341.881 33.3298 341.093 30.7998 341.093 27.6731C341.093 25.883 341.499 24.2003 342.31 22.625C343.146 21.0259 344.363 19.6058 345.962 18.3646C347.561 17.1474 349.53 16.1807 351.869 15.4647C354.232 14.7486 356.894 14.3906 359.853 14.3906C362.67 14.3906 365.259 14.677 367.622 15.2499C369.985 15.7988 371.978 16.4671 373.601 17.2548V27.4225H372.599C372.169 27.0883 371.489 26.6468 370.558 26.0978C369.627 25.525 368.72 25.0357 367.837 24.6299C366.787 24.1526 365.605 23.7588 364.293 23.4485C363.004 23.1382 361.679 22.9831 360.319 22.9831C358.505 22.9831 356.965 23.2933 355.7 23.9139C354.459 24.5345 353.839 25.3579 353.839 26.3842C353.839 27.2912 354.149 28.0072 354.769 28.5323C355.39 29.0574 356.738 29.5706 358.815 30.0718C359.889 30.3344 361.118 30.5969 362.503 30.8594C363.911 31.0981 365.259 31.4323 366.548 31.8619C369.436 32.7927 371.62 34.1651 373.1 35.9791C374.604 37.7692 375.355 40.156 375.355 43.1395C375.355 45.025 374.914 46.827 374.031 48.5455C373.148 50.2402 371.895 51.6722 370.272 52.8418C368.553 54.1067 366.524 55.0853 364.185 55.7775C361.87 56.4697 359.089 56.8158 355.843 56.8158Z" fill="#25E08A"/>
<path d="M323.155 55.7059V35.6211C323.155 33.6401 323.12 31.9693 323.048 30.6088C322.976 29.2484 322.762 28.1385 322.404 27.2793C322.046 26.42 321.485 25.7995 320.721 25.4176C319.981 25.0118 318.931 24.8089 317.57 24.8089C316.616 24.8089 315.673 25.0238 314.742 25.4534C313.811 25.8591 312.797 26.4439 311.699 27.2077V55.7059H299.097V35.6211C299.097 33.6639 299.049 32.0051 298.953 30.6446C298.882 29.2603 298.667 28.1385 298.309 27.2793C297.951 26.42 297.39 25.7995 296.626 25.4176C295.886 25.0118 294.848 24.8089 293.511 24.8089C292.485 24.8089 291.483 25.0476 290.504 25.525C289.526 26.0023 288.571 26.5632 287.64 27.2077V55.7059H275.109V15.5005H287.64V19.9399C289.693 18.1975 291.626 16.8371 293.44 15.8585C295.254 14.8799 297.295 14.3906 299.562 14.3906C302.02 14.3906 304.18 14.9754 306.042 16.1449C307.904 17.3144 309.324 19.0568 310.303 21.372C312.713 19.1284 314.981 17.4099 317.105 16.2165C319.253 14.9993 321.425 14.3906 323.621 14.3906C325.482 14.3906 327.153 14.689 328.633 15.2857C330.113 15.8824 331.366 16.7774 332.392 17.9708C333.514 19.2597 334.349 20.7991 334.898 22.5892C335.471 24.3555 335.758 26.6706 335.758 29.5348V55.7059H323.155Z" fill="#25E08A"/>
<path d="M253.631 56.7825C246.041 56.7825 240.217 54.9686 236.16 51.3407C232.126 47.7127 230.109 42.5454 230.109 35.8385C230.109 29.2748 231.995 24.0358 235.766 20.1215C239.537 16.2072 244.812 14.25 251.59 14.25C257.748 14.25 262.379 15.9088 265.482 19.2264C268.584 22.5441 270.136 27.2938 270.136 33.4756V37.9866H242.676C242.795 39.8483 243.189 41.4116 243.857 42.6766C244.526 43.9178 245.409 44.9083 246.507 45.6482C247.581 46.3881 248.834 46.9251 250.266 47.2593C251.698 47.5695 253.261 47.7247 254.956 47.7247C256.412 47.7247 257.844 47.5695 259.252 47.2593C260.66 46.9251 261.949 46.4955 263.119 45.9704C264.145 45.5169 265.088 45.0276 265.947 44.5025C266.83 43.9774 267.546 43.512 268.095 43.1062H269.42V53.453C268.393 53.8587 267.451 54.2406 266.591 54.5986C265.756 54.9328 264.598 55.2789 263.119 55.6369C261.758 55.9949 260.35 56.2694 258.894 56.4603C257.462 56.6751 255.708 56.7825 253.631 56.7825ZM257.784 30.4324C257.713 27.7831 257.092 25.7662 255.922 24.3819C254.777 22.9976 253.011 22.3054 250.624 22.3054C248.189 22.3054 246.28 23.0334 244.896 24.4893C243.535 25.9453 242.783 27.9263 242.64 30.4324H257.784Z" fill="#25E08A"/>
<path d="M212.348 43.0321V24.8089C211.728 24.5225 210.964 24.2839 210.057 24.0929C209.15 23.902 208.243 23.8065 207.336 23.8065C204.328 23.8065 202.061 24.7851 200.533 26.7422C199.03 28.6755 198.278 31.3845 198.278 34.8693C198.278 36.6116 198.385 38.0914 198.6 39.3087C198.839 40.5021 199.268 41.5642 199.889 42.495C200.486 43.402 201.261 44.0942 202.216 44.5715C203.195 45.025 204.436 45.2518 205.94 45.2518C207.061 45.2518 208.159 45.0608 209.233 44.6789C210.331 44.2971 211.37 43.7481 212.348 43.0321ZM224.879 51.0875C224.879 54.8108 224.342 57.9733 223.268 60.5749C222.194 63.1765 220.726 65.2053 218.864 66.6612C217.002 68.1411 214.771 69.2032 212.169 69.8476C209.567 70.5159 206.679 70.8501 203.505 70.8501C200.832 70.8501 198.29 70.671 195.879 70.313C193.492 69.9789 191.416 69.5851 189.65 69.1316V59.0713H191.118C191.738 59.3099 192.466 59.5725 193.302 59.8589C194.161 60.1453 195.02 60.4079 195.879 60.6465C196.906 60.9091 197.908 61.1239 198.887 61.291C199.865 61.4581 200.868 61.5416 201.894 61.5416C204.018 61.5416 205.784 61.3148 207.193 60.8614C208.625 60.4317 209.699 59.8112 210.415 58.9997C211.131 58.1643 211.632 57.1738 211.918 56.0281C212.205 54.9063 212.348 53.4862 212.348 51.7677V51.0159C210.94 52.257 209.305 53.2594 207.443 54.0232C205.605 54.7631 203.708 55.1331 201.751 55.1331C196.548 55.1331 192.526 53.4384 189.686 50.0492C186.869 46.66 185.461 41.5045 185.461 34.5828C185.461 31.4323 185.891 28.6039 186.75 26.0978C187.633 23.5917 188.85 21.4555 190.402 19.6893C191.881 17.9947 193.671 16.6939 195.772 15.7869C197.872 14.856 200.056 14.3906 202.324 14.3906C204.376 14.3906 206.214 14.6532 207.837 15.1783C209.46 15.7034 210.94 16.4075 212.276 17.2906L212.742 15.5005H224.879V51.0875Z" fill="#25E08A"/>
<path d="M179.047 69.7419H160.43V64.6222H172.781V5.11966H160.43V0H179.047V69.7419Z" fill="#E8FFF5"/>
<path d="M147.078 45.8618V34.7632C145.479 34.9064 143.45 35.1093 140.992 35.3718C138.557 35.6105 136.588 35.9566 135.085 36.4101C133.294 36.959 131.815 37.8064 130.645 38.952C129.476 40.0738 128.891 41.6491 128.891 43.6778C128.891 45.9692 129.535 47.6996 130.824 48.8691C132.113 50.0386 133.999 50.6234 136.481 50.6234C138.605 50.6234 140.526 50.1699 142.245 49.2629C143.963 48.3321 145.574 47.1984 147.078 45.8618ZM147.078 51.4468C146.529 51.8526 145.789 52.4254 144.858 53.1653C143.951 53.8814 143.068 54.4542 142.209 54.8838C141.016 55.5044 139.858 55.9817 138.736 56.3159C137.638 56.65 136.087 56.8171 134.082 56.8171C132.435 56.8171 130.872 56.5068 129.392 55.8863C127.912 55.2657 126.611 54.3945 125.49 53.2727C124.416 52.1748 123.556 50.8263 122.912 49.2271C122.268 47.6041 121.945 45.8976 121.945 44.1075C121.945 41.3388 122.53 38.9878 123.7 37.0545C124.869 35.0974 126.719 33.5459 129.249 32.4003C131.492 31.374 134.142 30.6699 137.197 30.288C140.252 29.8822 143.546 29.5839 147.078 29.3929V28.1041C147.078 26.5288 146.839 25.2638 146.362 24.3091C145.885 23.3305 145.216 22.5787 144.357 22.0536C143.498 21.5046 142.448 21.1466 141.207 20.9795C139.966 20.7886 138.689 20.6931 137.376 20.6931C135.824 20.6931 133.999 20.9318 131.898 21.4091C129.798 21.8626 127.697 22.5309 125.597 23.414H125.203V16.5759C126.444 16.2179 128.223 15.8241 130.538 15.3944C132.853 14.9648 135.144 14.75 137.412 14.75C140.156 14.75 142.472 14.9648 144.357 15.3944C146.243 15.8241 147.937 16.5998 149.441 17.7215C150.897 18.8195 151.983 20.2396 152.699 21.982C153.415 23.7243 153.773 25.8486 153.773 28.3547V55.7073H147.078V51.4468Z" fill="#E8FFF5"/>
<path d="M113.742 56.4933C110.066 56.4933 107.202 55.455 105.149 53.3785C103.097 51.2781 102.07 47.9725 102.07 43.4614V21.3001H97.5234V15.715H102.07V4.22266H108.801V15.715H121.188V21.3001H108.801V40.3109C108.801 42.3396 108.837 43.903 108.908 45.0009C108.98 46.0988 109.254 47.1251 109.732 48.0798C110.138 48.9152 110.794 49.5477 111.701 49.9773C112.608 50.3831 113.837 50.586 115.389 50.586C116.486 50.586 117.549 50.4308 118.575 50.1206C119.601 49.7864 120.341 49.5119 120.795 49.2971H121.188V55.3476C119.923 55.7056 118.635 55.9801 117.322 56.1711C116.033 56.3859 114.84 56.4933 113.742 56.4933Z" fill="#E8FFF5"/>
<path d="M86.9297 45.8618V34.7632C85.3306 34.9064 83.3018 35.1093 80.8434 35.3718C78.4089 35.6105 76.4398 35.9566 74.9361 36.4101C73.146 36.959 71.6662 37.8064 70.4967 38.952C69.3272 40.0738 68.7424 41.6491 68.7424 43.6778C68.7424 45.9692 69.3869 47.6996 70.6757 48.8691C71.9646 50.0386 73.8501 50.6234 76.3324 50.6234C78.4566 50.6234 80.378 50.1699 82.0965 49.2629C83.815 48.3321 85.4261 47.1984 86.9297 45.8618ZM86.9297 51.4468C86.3808 51.8526 85.6409 52.4254 84.71 53.1653C83.803 53.8814 82.9199 54.4542 82.0607 54.8838C80.8673 55.5044 79.7097 55.9817 78.5879 56.3159C77.49 56.65 75.9386 56.8171 73.9337 56.8171C72.2868 56.8171 70.7235 56.5068 69.2436 55.8863C67.7638 55.2657 66.463 54.3945 65.3412 53.2727C64.2672 52.1748 63.408 50.8263 62.7635 49.2271C62.1191 47.6041 61.7969 45.8976 61.7969 44.1075C61.7969 41.3388 62.3816 38.9878 63.5512 37.0545C64.7207 35.0974 66.5704 33.5459 69.1004 32.4003C71.344 31.374 73.9934 30.6699 77.0484 30.288C80.1035 29.8822 83.3973 29.5839 86.9297 29.3929V28.1041C86.9297 26.5288 86.691 25.2638 86.2137 24.3091C85.7363 23.3305 85.068 22.5787 84.2088 22.0536C83.3496 21.5046 82.2994 21.1466 81.0582 20.9795C79.8171 20.7886 78.5402 20.6931 77.2274 20.6931C75.676 20.6931 73.8501 20.9318 71.7498 21.4091C69.6494 21.8626 67.549 22.5309 65.4487 23.414H65.0548V16.5759C66.296 16.2179 68.0741 15.8241 70.3893 15.3944C72.7045 14.9648 74.9958 14.75 77.2632 14.75C80.008 14.75 82.3232 14.9648 84.2088 15.3944C86.0944 15.8241 87.789 16.5998 89.2926 17.7215C90.7486 18.8195 91.8346 20.2396 92.5506 21.982C93.2666 23.7243 93.6247 25.8486 93.6247 28.3547V55.7073H86.9297V51.4468Z" fill="#E8FFF5"/>
<path d="M56.3119 55.7076H49.5812V51.6262C48.531 52.5093 47.624 53.2373 46.8602 53.8101C46.0965 54.3829 45.2014 54.908 44.1751 55.3854C43.2204 55.8389 42.2299 56.1849 41.2035 56.4236C40.1772 56.6862 38.9838 56.8174 37.6234 56.8174C35.4514 56.8174 33.4346 56.364 31.5729 55.457C29.735 54.55 28.1717 53.2253 26.8828 51.483C25.5701 49.7168 24.5557 47.5448 23.8397 44.9671C23.1236 42.3655 22.7656 39.382 22.7656 36.0166C22.7656 32.508 23.2191 29.4768 24.1261 26.923C25.0331 24.3452 26.2861 22.1016 27.8853 20.1922C29.3412 18.4499 31.0955 17.0894 33.1481 16.1108C35.2246 15.1084 37.3966 14.6071 39.6641 14.6071C41.669 14.6071 43.4113 14.8339 44.8911 15.2874C46.3709 15.717 47.9343 16.3972 49.5812 17.3281V0H56.3119V55.7076ZM49.5812 45.9695V22.9131C47.9104 22.1016 46.4067 21.5407 45.0701 21.2305C43.7574 20.9202 42.3253 20.765 40.7739 20.765C37.3131 20.765 34.6041 22.0658 32.6469 24.6674C30.6898 27.2452 29.7112 30.9805 29.7112 35.8734C29.7112 40.5754 30.463 44.1794 31.9667 46.6855C33.4704 49.1678 35.881 50.4089 39.1986 50.4089C40.9649 50.4089 42.743 50.0151 44.5331 49.2275C46.3232 48.416 48.0059 47.33 49.5812 45.9695Z" fill="#E8FFF5"/>
<path d="M18.6169 69.7419H0V0H18.6169V5.11966H6.26531V64.6222H18.6169V69.7419Z" fill="#E8FFF5"/>
</svg>
